<?xml version="1.0" encoding="utf-8"?>
<!-- Svg Vector Icons : http://www.onlinewebfonts.com/icon -->
<!DOCTYPE svg PUBLIC "-//W3C//DTD SVG 1.1//EN" "http://www.w3.org/Graphics/SVG/1.1/DTD/svg11.dtd">
<svg version="1.1" xmlns="http://www.w3.org/2000/svg" xmlns:xlink="http://www.w3.org/1999/xlink" x="0px" y="0px" viewBox="0 0 1000 1000" enable-background="new 0 0 1000 1000" xml:space="preserve">
<metadata> Svg Vector Icons : http://www.onlinewebfonts.com/icon </metadata>
<g><g><g><path d="M117,607c-59,0-107-48-107-107c0-59,48-107,107-107s107,48,107,107C224,559,176,607,117,607z M117,425.1c-41.3,0-74.9,33.6-74.9,74.9s33.6,74.9,74.9,74.9s74.9-33.6,74.9-74.9S158.3,425.1,117,425.1z"/><path d="M494,607c-59,0-107-48-107-107c0-59,48-107,107-107c59,0,107,48,107,107C601,559,553,607,494,607z M494,425.1c-41.3,0-74.9,33.6-74.9,74.9s33.6,74.9,74.9,74.9c41.3,0,74.9-33.6,74.9-74.9S535.3,425.1,494,425.1z"/><path d="M883,607c-59,0-107-48-107-107c0-59,48-107,107-107s107,48,107,107C990,559,942,607,883,607z M883,425.1c-41.3,0-74.9,33.6-74.9,74.9s33.6,74.9,74.9,74.9s74.9-33.6,74.9-74.9S924.3,425.1,883,425.1z"/></g></g><g></g><g></g><g></g><g></g><g></g><g></g><g></g><g></g><g></g><g></g><g></g><g></g><g></g><g></g><g></g></g>
</svg>